<?xml version="1.0" encoding="utf-8"?>
<!-- Svg Vector Icons : http://www.onlinewebfonts.com/icon -->
<!DOCTYPE svg PUBLIC "-//W3C//DTD SVG 1.1//EN" "http://www.w3.org/Graphics/SVG/1.1/DTD/svg11.dtd">
<svg version="1.1" xmlns="http://www.w3.org/2000/svg" xmlns:xlink="http://www.w3.org/1999/xlink" x="0px" y="0px" viewBox="0 0 1000 1000" enable-background="new 0 0 1000 1000" xml:space="preserve" fill="#1ac8f8">
<metadata> Svg Vector Icons : http://www.onlinewebfonts.com/icon </metadata>
<g><path d="M915.4,686.7l10.4,174.9l-130.4-78.3C842,753.7,874.8,724.1,915.4,686.7z"/><path d="M566.4,225C332.8,225,142.8,364,142.8,534.1c0,169.3,190,308.3,423.6,308.3C800,842.4,990,703.4,990,534.1C990,364,800,225,566.4,225z M315.4,578.2c-31,0-56.2-25.1-56.2-56.2c0-31,25.1-56.1,56.2-56.1c31,0,56.2,25.1,56.2,56.1C371.5,553,346.4,578.2,315.4,578.2z M566.4,578.2c-31,0-56.2-25.1-56.2-56.2c0-31,25.1-56.1,56.2-56.1c31,0,56.2,25.1,56.2,56.1C622.6,553,597.4,578.2,566.4,578.2z M817.4,578.2c-31,0-56.2-25.1-56.2-56.2c0-31,25.1-56.1,56.2-56.1c31,0,56.2,25.1,56.2,56.1C873.6,553,848.4,578.2,817.4,578.2z"/><path d="M90.2,496.9c0-170,190-309.1,423.6-309.1c108.1,0,206.7,29.8,281.6,78.6c-78-77.4-207.4-128-353.8-128C203.2,138.4,10,272.4,10,437.7c0,89.7,57,170.1,147.1,224.9C114.8,614.7,90.2,557.8,90.2,496.9z"/></g>
</svg>
