<svg width="599" height="200" viewBox="0 0 599 200" fill="none" xmlns="http://www.w3.org/2000/svg">
<path d="M200 100C200 155.228 155.228 200 100 200C44.7715 200 0 155.228 0 100C0 44.7715 44.7715 0 100 0C155.228 0 200 44.7715 200 100Z" fill="url(#paint0_radial_3_5)"/>
<path d="M280.295 147.316C277.88 147.954 275.236 148.479 272.365 148.889C269.54 149.299 267.01 149.504 264.777 149.504C256.984 149.504 251.06 147.408 247.004 143.215C242.948 139.022 240.92 132.3 240.92 123.049V82.4434H232.238V71.6426H240.92V49.6992H253.771V71.6426H280.295V82.4434H253.771V117.238C253.771 121.249 253.863 124.393 254.045 126.672C254.227 128.905 254.865 131.001 255.959 132.961C256.962 134.784 258.329 136.128 260.061 136.994C261.838 137.814 264.527 138.225 268.127 138.225C270.223 138.225 272.411 137.928 274.689 137.336C276.968 136.698 278.609 136.174 279.611 135.764H280.295V147.316ZM355.217 148H342.434V139.865C341.294 140.64 339.745 141.734 337.785 143.146C335.871 144.514 334.003 145.607 332.18 146.428C330.038 147.476 327.577 148.342 324.797 149.025C322.017 149.755 318.758 150.119 315.021 150.119C308.14 150.119 302.307 147.84 297.521 143.283C292.736 138.726 290.344 132.915 290.344 125.852C290.344 120.064 291.574 115.393 294.035 111.838C296.542 108.238 300.096 105.412 304.699 103.361C309.348 101.311 314.93 99.9206 321.447 99.1914C327.964 98.4622 334.96 97.9154 342.434 97.5508V95.5684C342.434 92.6517 341.91 90.2363 340.861 88.3223C339.859 86.4082 338.4 84.9043 336.486 83.8105C334.663 82.7624 332.476 82.056 329.924 81.6914C327.372 81.3268 324.706 81.1445 321.926 81.1445C318.553 81.1445 314.794 81.6003 310.646 82.5117C306.499 83.3776 302.215 84.6536 297.795 86.3398H297.111V73.2832C299.618 72.5996 303.241 71.8477 307.98 71.0273C312.72 70.207 317.391 69.7969 321.994 69.7969C327.372 69.7969 332.043 70.2526 336.008 71.1641C340.018 72.0299 343.482 73.5339 346.398 75.6758C349.27 77.7721 351.457 80.4837 352.961 83.8105C354.465 87.1374 355.217 91.2617 355.217 96.1836V148ZM342.434 129.201V107.941C338.514 108.169 333.889 108.511 328.557 108.967C323.27 109.423 319.077 110.083 315.979 110.949C312.287 111.997 309.302 113.638 307.023 115.871C304.745 118.059 303.605 121.089 303.605 124.963C303.605 129.338 304.927 132.642 307.57 134.875C310.214 137.062 314.247 138.156 319.67 138.156C324.182 138.156 328.306 137.29 332.043 135.559C335.78 133.781 339.243 131.662 342.434 129.201ZM447.16 108.898C447.16 115.096 446.271 120.77 444.494 125.92C442.717 131.024 440.21 135.354 436.975 138.908C433.967 142.281 430.412 144.901 426.311 146.77C422.255 148.592 417.948 149.504 413.391 149.504C409.426 149.504 405.826 149.071 402.59 148.205C399.4 147.339 396.141 145.995 392.814 144.172V176.164H379.963V71.6426H392.814V79.6406C396.232 76.7695 400.061 74.377 404.299 72.4629C408.583 70.5033 413.14 69.5234 417.971 69.5234C427.176 69.5234 434.331 73.0098 439.436 79.9824C444.585 86.9095 447.16 96.5482 447.16 108.898ZM433.898 109.24C433.898 100.035 432.326 93.153 429.182 88.5957C426.037 84.0384 421.206 81.7598 414.689 81.7598C410.998 81.7598 407.284 82.5573 403.547 84.1523C399.81 85.7474 396.232 87.8438 392.814 90.4414V133.713C396.46 135.354 399.582 136.47 402.18 137.062C404.823 137.655 407.808 137.951 411.135 137.951C418.29 137.951 423.872 135.536 427.883 130.705C431.893 125.874 433.898 118.719 433.898 109.24ZM531.105 111.154H474.846C474.846 115.848 475.552 119.95 476.965 123.459C478.378 126.923 480.314 129.771 482.775 132.004C485.145 134.191 487.948 135.832 491.184 136.926C494.465 138.02 498.065 138.566 501.984 138.566C507.18 138.566 512.398 137.541 517.639 135.49C522.925 133.394 526.685 131.343 528.918 129.338H529.602V143.352C525.272 145.174 520.852 146.701 516.34 147.932C511.828 149.162 507.089 149.777 502.121 149.777C489.452 149.777 479.562 146.359 472.453 139.523C465.344 132.642 461.789 122.889 461.789 110.266C461.789 97.7786 465.184 87.8665 471.975 80.5293C478.811 73.1921 487.788 69.5234 498.908 69.5234C509.208 69.5234 517.137 72.5312 522.697 78.5469C528.303 84.5625 531.105 93.1074 531.105 104.182V111.154ZM518.596 101.311C518.55 94.5658 516.841 89.3477 513.469 85.6562C510.142 81.9648 505.061 80.1191 498.225 80.1191C491.343 80.1191 485.852 82.1471 481.75 86.2031C477.694 90.2591 475.393 95.2949 474.846 101.311H518.596ZM598.234 85.6562H597.551C595.637 85.2005 593.768 84.8815 591.945 84.6992C590.168 84.4714 588.049 84.3574 585.588 84.3574C581.623 84.3574 577.795 85.2461 574.104 87.0234C570.412 88.7552 566.857 91.0111 563.439 93.791V148H550.588V71.6426H563.439V82.9219C568.544 78.8203 573.033 75.9264 576.906 74.2402C580.826 72.5085 584.813 71.6426 588.869 71.6426C591.102 71.6426 592.72 71.7109 593.723 71.8477C594.725 71.9388 596.229 72.1439 598.234 72.4629V85.6562Z" fill="#9B51E0"/>
<path d="M280.295 147.316L280.55 148.283L281.295 148.087V147.316H280.295ZM272.365 148.889L272.224 147.899L272.222 147.899L272.365 148.889ZM240.92 82.4434H241.92V81.4434H240.92V82.4434ZM232.238 82.4434H231.238V83.4434H232.238V82.4434ZM232.238 71.6426V70.6426H231.238V71.6426H232.238ZM240.92 71.6426V72.6426H241.92V71.6426H240.92ZM240.92 49.6992V48.6992H239.92V49.6992H240.92ZM253.771 49.6992H254.771V48.6992H253.771V49.6992ZM253.771 71.6426H252.771V72.6426H253.771V71.6426ZM280.295 71.6426H281.295V70.6426H280.295V71.6426ZM280.295 82.4434V83.4434H281.295V82.4434H280.295ZM253.771 82.4434V81.4434H252.771V82.4434H253.771ZM254.045 126.672L253.048 126.752L253.048 126.753L254.045 126.672ZM255.959 132.961L256.835 132.479L256.832 132.474L255.959 132.961ZM260.061 136.994L259.613 137.889L259.627 137.896L259.641 137.902L260.061 136.994ZM274.689 137.336L274.941 138.304L274.95 138.301L274.959 138.299L274.689 137.336ZM279.611 135.764V134.764H279.415L279.233 134.838L279.611 135.764ZM280.295 135.764H281.295V134.764H280.295V135.764ZM280.04 146.35C277.667 146.976 275.062 147.493 272.224 147.899L272.507 149.879C275.41 149.464 278.092 148.933 280.55 148.283L280.04 146.35ZM272.222 147.899C269.431 148.304 266.951 148.504 264.777 148.504V150.504C267.07 150.504 269.648 150.294 272.509 149.878L272.222 147.899ZM264.777 148.504C257.161 148.504 251.533 146.459 247.723 142.52L246.285 143.91C250.586 148.356 256.808 150.504 264.777 150.504V148.504ZM247.723 142.52C243.928 138.597 241.92 132.187 241.92 123.049H239.92C239.92 132.413 241.968 139.447 246.285 143.91L247.723 142.52ZM241.92 123.049V82.4434H239.92V123.049H241.92ZM240.92 81.4434H232.238V83.4434H240.92V81.4434ZM233.238 82.4434V71.6426H231.238V82.4434H233.238ZM232.238 72.6426H240.92V70.6426H232.238V72.6426ZM241.92 71.6426V49.6992H239.92V71.6426H241.92ZM240.92 50.6992H253.771V48.6992H240.92V50.6992ZM252.771 49.6992V71.6426H254.771V49.6992H252.771ZM253.771 72.6426H280.295V70.6426H253.771V72.6426ZM279.295 71.6426V82.4434H281.295V71.6426H279.295ZM280.295 81.4434H253.771V83.4434H280.295V81.4434ZM252.771 82.4434V117.238H254.771V82.4434H252.771ZM252.771 117.238C252.771 121.259 252.863 124.434 253.048 126.752L255.042 126.592C254.863 124.353 254.771 121.239 254.771 117.238H252.771ZM253.048 126.753C253.242 129.129 253.922 131.364 255.086 133.448L256.832 132.474C255.808 130.639 255.212 128.681 255.042 126.591L253.048 126.753ZM255.083 133.443C256.176 135.43 257.686 136.925 259.613 137.889L260.508 136.1C258.971 135.331 257.748 134.138 256.835 132.479L255.083 133.443ZM259.641 137.902C261.619 138.815 264.483 139.225 268.127 139.225V137.225C264.57 137.225 262.057 136.814 260.48 136.086L259.641 137.902ZM268.127 139.225C270.318 139.225 272.59 138.915 274.941 138.304L274.438 136.368C272.231 136.942 270.129 137.225 268.127 137.225V139.225ZM274.959 138.299C277.242 137.66 278.93 137.123 279.99 136.689L279.233 134.838C278.287 135.225 276.694 135.736 274.42 136.373L274.959 138.299ZM279.611 136.764H280.295V134.764H279.611V136.764ZM279.295 135.764V147.316H281.295V135.764H279.295ZM355.217 148V149H356.217V148H355.217ZM342.434 148H341.434V149H342.434V148ZM342.434 139.865H343.434V137.976L341.871 139.038L342.434 139.865ZM337.785 143.146L338.366 143.96L338.37 143.958L337.785 143.146ZM332.18 146.428L331.769 145.516L331.755 145.522L331.74 145.53L332.18 146.428ZM324.797 149.025L324.558 148.054L324.551 148.056L324.543 148.058L324.797 149.025ZM294.035 111.838L293.214 111.267L293.213 111.269L294.035 111.838ZM304.699 103.361L304.296 102.446L304.292 102.448L304.699 103.361ZM342.434 97.5508L342.482 98.5496L343.434 98.5032V97.5508H342.434ZM340.861 88.3223L339.975 88.7863L339.98 88.7945L339.984 88.8026L340.861 88.3223ZM336.486 83.8105L335.988 84.6775L335.99 84.6788L336.486 83.8105ZM310.646 82.5117L310.851 83.4907L310.861 83.4884L310.646 82.5117ZM297.795 86.3398V87.3398H297.979L298.151 87.2742L297.795 86.3398ZM297.111 86.3398H296.111V87.3398H297.111V86.3398ZM297.111 73.2832L296.848 72.3184L296.111 72.5194V73.2832H297.111ZM336.008 71.1641L335.784 72.1387L335.797 72.1415L336.008 71.1641ZM346.398 75.6758L345.807 76.4818L345.809 76.4834L346.398 75.6758ZM352.961 83.8105L353.872 83.3986L352.961 83.8105ZM342.434 129.201L343.044 129.993L343.434 129.693V129.201H342.434ZM342.434 107.941H343.434V106.882L342.376 106.943L342.434 107.941ZM328.557 108.967L328.471 107.97L328.471 107.97L328.557 108.967ZM315.979 110.949L315.709 109.986L315.705 109.987L315.979 110.949ZM307.023 115.871L307.716 116.593L307.723 116.585L307.023 115.871ZM307.57 134.875L306.925 135.639L306.933 135.645L307.57 134.875ZM332.043 135.559L332.463 136.466L332.472 136.462L332.043 135.559ZM355.217 147H342.434V149H355.217V147ZM343.434 148V139.865H341.434V148H343.434ZM341.871 139.038C340.721 139.821 339.163 140.921 337.2 142.335L338.37 143.958C340.327 142.547 341.868 141.459 342.996 140.692L341.871 139.038ZM337.204 142.333C335.334 143.668 333.523 144.727 331.769 145.516L332.59 147.34C334.482 146.488 336.408 145.359 338.366 143.96L337.204 142.333ZM331.74 145.53C329.674 146.541 327.282 147.384 324.558 148.054L325.036 149.996C327.872 149.299 330.402 148.411 332.619 147.326L331.74 145.53ZM324.543 148.058C321.866 148.76 318.697 149.119 315.021 149.119V151.119C318.82 151.119 322.167 150.749 325.051 149.993L324.543 148.058ZM315.021 149.119C308.385 149.119 302.802 146.931 298.211 142.559L296.832 144.007C301.811 148.75 307.895 151.119 315.021 151.119V149.119ZM298.211 142.559C293.639 138.205 291.344 132.663 291.344 125.852H289.344C289.344 133.168 291.834 139.247 296.832 144.007L298.211 142.559ZM291.344 125.852C291.344 120.2 292.546 115.746 294.857 112.407L293.213 111.269C290.603 115.039 289.344 119.928 289.344 125.852H291.344ZM294.856 112.409C297.243 108.98 300.645 106.263 305.106 104.275L304.292 102.448C299.548 104.562 295.84 107.496 293.214 111.267L294.856 112.409ZM305.103 104.276C309.636 102.276 315.115 100.906 321.558 100.185L321.336 98.1976C314.746 98.935 309.059 100.345 304.296 102.446L305.103 104.276ZM321.558 100.185C328.052 99.4587 335.026 98.9133 342.482 98.5496L342.385 96.552C334.893 96.9174 327.876 97.4658 321.336 98.1976L321.558 100.185ZM343.434 97.5508V95.5684H341.434V97.5508H343.434ZM343.434 95.5684C343.434 92.5381 342.89 89.9445 341.738 87.8419L339.984 88.8026C340.929 90.5281 341.434 92.7652 341.434 95.5684H343.434ZM341.747 87.8583C340.654 85.7714 339.059 84.1288 336.982 82.9423L335.99 84.6788C337.742 85.6798 339.063 87.045 339.975 88.7863L341.747 87.8583ZM336.985 82.9436C335.03 81.8196 332.716 81.0801 330.065 80.7015L329.782 82.6814C332.236 83.0319 334.297 83.7051 335.988 84.6775L336.985 82.9436ZM330.065 80.7015C327.463 80.3297 324.749 80.1445 321.926 80.1445V82.1445C324.662 82.1445 327.281 82.324 329.782 82.6814L330.065 80.7015ZM321.926 80.1445C318.465 80.1445 314.632 80.6119 310.432 81.535L310.861 83.4884C314.955 82.5887 318.641 82.1445 321.926 82.1445V80.1445ZM310.442 81.5328C306.238 82.4107 301.903 83.7026 297.439 85.4055L298.151 87.2742C302.528 85.6047 306.761 84.3445 310.851 83.4906L310.442 81.5328ZM297.795 85.3398H297.111V87.3398H297.795V85.3398ZM298.111 86.3398V73.2832H296.111V86.3398H298.111ZM297.374 74.248C299.835 73.5769 303.421 72.8313 308.151 72.0127L307.81 70.042C303.061 70.864 299.401 71.6223 296.848 72.3184L297.374 74.248ZM308.151 72.0127C312.837 71.2017 317.451 70.7969 321.994 70.7969V68.7969C317.332 68.7969 312.603 69.2124 307.81 70.042L308.151 72.0127ZM321.994 70.7969C327.319 70.7969 331.912 71.2485 335.784 72.1386L336.232 70.1895C332.174 69.2567 327.425 68.7969 321.994 68.7969V70.7969ZM335.797 72.1415C339.688 72.9817 343.018 74.4337 345.807 76.4818L346.99 74.8698C343.946 72.6341 340.348 71.0782 336.219 70.1866L335.797 72.1415ZM345.809 76.4834C348.536 78.475 350.615 81.0487 352.05 84.2225L353.872 83.3986C352.299 79.9188 350.003 77.0693 346.988 74.8682L345.809 76.4834ZM352.05 84.2225C353.478 87.3831 354.217 91.357 354.217 96.1836H356.217C356.217 91.1665 355.451 86.8916 353.872 83.3986L352.05 84.2225ZM354.217 96.1836V148H356.217V96.1836H354.217ZM343.434 129.201V107.941H341.434V129.201H343.434ZM342.376 106.943C338.445 107.172 333.81 107.514 328.471 107.97L328.642 109.963C333.968 109.508 338.584 109.167 342.492 108.94L342.376 106.943ZM328.471 107.97C323.157 108.429 318.894 109.096 315.709 109.986L316.248 111.912C319.261 111.07 323.384 110.416 328.643 109.963L328.471 107.97ZM315.705 109.987C311.886 111.072 308.743 112.785 306.324 115.157L307.723 116.585C309.861 114.491 312.689 112.923 316.252 111.911L315.705 109.987ZM306.331 115.15C303.813 117.567 302.605 120.883 302.605 124.963H304.605C304.605 121.296 305.677 118.55 307.716 116.592L306.331 115.15ZM302.605 124.963C302.605 129.548 304 133.167 306.925 135.639L308.216 134.111C305.855 132.116 304.605 129.128 304.605 124.963H302.605ZM306.933 135.645C309.834 138.046 314.141 139.156 319.67 139.156V137.156C314.352 137.156 310.594 136.079 308.208 134.105L306.933 135.645ZM319.67 139.156C324.313 139.156 328.583 138.264 332.463 136.466L331.623 134.651C328.029 136.316 324.05 137.156 319.67 137.156V139.156ZM332.472 136.462C336.272 134.655 339.796 132.498 343.044 129.993L341.823 128.409C338.69 130.826 335.288 132.908 331.613 134.656L332.472 136.462ZM444.494 125.92L445.439 126.249L445.439 126.246L444.494 125.92ZM436.975 138.908L436.235 138.235L436.228 138.243L436.975 138.908ZM426.311 146.77L426.72 147.682L426.725 147.68L426.311 146.77ZM402.59 148.205L402.328 149.17L402.331 149.171L402.59 148.205ZM392.814 144.172L393.295 143.295L391.814 142.484V144.172H392.814ZM392.814 176.164V177.164H393.814V176.164H392.814ZM379.963 176.164H378.963V177.164H379.963V176.164ZM379.963 71.6426V70.6426H378.963V71.6426H379.963ZM392.814 71.6426H393.814V70.6426H392.814V71.6426ZM392.814 79.6406H391.814V81.7866L393.458 80.4063L392.814 79.6406ZM404.299 72.4629L404.71 73.3743L404.715 73.3723L404.299 72.4629ZM439.436 79.9824L438.629 80.5731L438.633 80.579L439.436 79.9824ZM403.547 84.1523L403.939 85.0721L403.547 84.1523ZM392.814 90.4414L392.209 89.6452L391.814 89.9454V90.4414H392.814ZM392.814 133.713H391.814V134.359L392.404 134.625L392.814 133.713ZM402.18 137.062L401.957 138.037L401.961 138.038L402.18 137.062ZM427.883 130.705L428.652 131.344L427.883 130.705ZM446.16 108.898C446.16 115 445.285 120.562 443.549 125.594L445.439 126.246C447.258 120.978 448.16 115.192 448.16 108.898H446.16ZM443.55 125.591C441.811 130.584 439.369 134.792 436.235 138.235L437.714 139.581C441.051 135.915 443.622 131.465 445.439 126.249L443.55 125.591ZM436.228 138.243C433.313 141.512 429.871 144.049 425.896 145.86L426.725 147.68C430.953 145.753 434.621 143.05 437.721 139.574L436.228 138.243ZM425.901 145.857C421.977 147.621 417.81 148.504 413.391 148.504V150.504C418.086 150.504 422.532 149.564 426.72 147.682L425.901 145.857ZM413.391 148.504C409.498 148.504 405.986 148.079 402.848 147.239L402.331 149.171C405.665 150.063 409.354 150.504 413.391 150.504V148.504ZM402.852 147.24C399.748 146.398 396.563 145.085 393.295 143.295L392.334 145.049C395.72 146.904 399.051 148.281 402.328 149.17L402.852 147.24ZM391.814 144.172V176.164H393.814V144.172H391.814ZM392.814 175.164H379.963V177.164H392.814V175.164ZM380.963 176.164V71.6426H378.963V176.164H380.963ZM379.963 72.6426H392.814V70.6426H379.963V72.6426ZM391.814 71.6426V79.6406H393.814V71.6426H391.814ZM393.458 80.4063C396.803 77.5966 400.552 75.2522 404.71 73.3743L403.887 71.5515C399.569 73.5017 395.662 75.9425 392.171 78.8749L393.458 80.4063ZM404.715 73.3723C408.865 71.4739 413.28 70.5234 417.971 70.5234V68.5234C413 68.5234 408.301 69.5326 403.883 71.5535L404.715 73.3723ZM417.971 70.5234C426.882 70.5234 433.727 73.8768 438.629 80.5731L440.242 79.3917C434.936 72.1428 427.471 68.5234 417.971 68.5234V70.5234ZM438.633 80.579C443.61 87.2735 446.16 96.6736 446.16 108.898H448.16C448.16 96.4228 445.561 86.5455 440.238 79.3858L438.633 80.579ZM434.898 109.24C434.898 99.953 433.318 92.8299 430.005 88.0278L428.359 89.1636C431.334 93.4761 432.898 100.116 432.898 109.24H434.898ZM430.005 88.0278C426.639 83.1492 421.468 80.7598 414.689 80.7598V82.7598C420.945 82.7598 425.436 84.9276 428.359 89.1636L430.005 88.0278ZM414.689 80.7598C410.85 80.7598 407.003 81.59 403.154 83.2326L403.939 85.0721C407.565 83.5246 411.146 82.7598 414.689 82.7598V80.7598ZM403.154 83.2326C399.338 84.8617 395.689 87.0006 392.209 89.6452L393.42 91.2376C396.776 88.6869 400.282 86.6331 403.939 85.0721L403.154 83.2326ZM391.814 90.4414V133.713H393.814V90.4414H391.814ZM392.404 134.625C396.084 136.281 399.272 137.425 401.957 138.037L402.402 136.088C399.892 135.515 396.837 134.426 393.225 132.801L392.404 134.625ZM401.961 138.038C404.69 138.65 407.75 138.951 411.135 138.951V136.951C407.866 136.951 404.956 136.66 402.398 136.087L401.961 138.038ZM411.135 138.951C418.541 138.951 424.424 136.437 428.652 131.344L427.113 130.066C423.321 134.635 418.039 136.951 411.135 136.951V138.951ZM428.652 131.344C432.871 126.262 434.898 118.839 434.898 109.24H432.898C432.898 118.6 430.915 125.487 427.113 130.066L428.652 131.344ZM531.105 111.154V112.154H532.105V111.154H531.105ZM474.846 111.154V110.154H473.846V111.154H474.846ZM476.965 123.459L476.037 123.832L476.039 123.837L476.965 123.459ZM482.775 132.004L483.454 131.269L483.447 131.263L482.775 132.004ZM491.184 136.926L490.863 137.873L490.867 137.874L491.184 136.926ZM517.639 135.49L518.003 136.421L518.007 136.42L517.639 135.49ZM528.918 129.338V128.338H528.535L528.25 128.594L528.918 129.338ZM529.602 129.338H530.602V128.338H529.602V129.338ZM529.602 143.352L529.99 144.273L530.602 144.016V143.352H529.602ZM472.453 139.523L471.758 140.242L471.76 140.244L472.453 139.523ZM471.975 80.5293L471.243 79.8476L471.241 79.8501L471.975 80.5293ZM522.697 78.5469L521.963 79.2256L521.966 79.2286L522.697 78.5469ZM518.596 101.311V102.311H519.602L519.596 101.304L518.596 101.311ZM513.469 85.6562L512.726 86.3257L512.73 86.3307L513.469 85.6562ZM481.75 86.2031L481.047 85.4921L481.043 85.496L481.75 86.2031ZM474.846 101.311L473.85 101.22L473.751 102.311H474.846V101.311ZM531.105 110.154H474.846V112.154H531.105V110.154ZM473.846 111.154C473.846 115.946 474.567 120.18 476.037 123.832L477.892 123.086C476.538 119.72 475.846 115.75 475.846 111.154H473.846ZM476.039 123.837C477.501 127.421 479.519 130.399 482.103 132.744L483.447 131.263C481.11 129.143 479.254 126.424 477.891 123.081L476.039 123.837ZM482.097 132.739C484.576 135.027 487.503 136.737 490.863 137.873L491.504 135.978C488.393 134.927 485.714 133.356 483.454 131.269L482.097 132.739ZM490.867 137.874C494.263 139.006 497.972 139.566 501.984 139.566V137.566C498.158 137.566 494.667 137.033 491.5 135.977L490.867 137.874ZM501.984 139.566C507.314 139.566 512.656 138.514 518.003 136.421L517.274 134.559C512.14 136.568 507.045 137.566 501.984 137.566V139.566ZM518.007 136.42C523.323 134.312 527.218 132.208 529.586 130.082L528.25 128.594C526.152 130.478 522.527 132.476 517.27 134.561L518.007 136.42ZM528.918 130.338H529.602V128.338H528.918V130.338ZM528.602 129.338V143.352H530.602V129.338H528.602ZM529.214 142.43C524.925 144.236 520.546 145.748 516.077 146.967L516.603 148.896C521.157 147.654 525.62 146.113 529.99 144.273L529.214 142.43ZM516.077 146.967C511.656 148.173 507.005 148.777 502.121 148.777V150.777C507.172 150.777 512 150.152 516.603 148.896L516.077 146.967ZM502.121 148.777C489.634 148.777 480.021 145.413 473.146 138.803L471.76 140.244C479.104 147.306 489.27 150.777 502.121 150.777V148.777ZM473.149 138.805C466.284 132.16 462.789 122.697 462.789 110.266H460.789C460.789 123.081 464.403 133.124 471.758 140.242L473.149 138.805ZM462.789 110.266C462.789 97.965 466.129 88.3179 472.709 81.2085L471.241 79.8501C464.239 87.4152 460.789 97.5923 460.789 110.266H462.789ZM472.706 81.211C479.331 74.1 488.032 70.5234 498.908 70.5234V68.5234C487.544 68.5234 478.29 72.2841 471.243 79.8476L472.706 81.211ZM498.908 70.5234C509.005 70.5234 516.639 73.465 521.963 79.2256L523.432 77.8681C517.636 71.5975 509.41 68.5234 498.908 68.5234V70.5234ZM521.966 79.2286C527.346 85.0027 530.105 93.2711 530.105 104.182H532.105C532.105 92.9438 529.259 84.1223 523.429 77.8652L521.966 79.2286ZM530.105 104.182V111.154H532.105V104.182H530.105ZM519.596 101.304C519.549 94.3991 517.797 88.9114 514.207 84.9818L512.73 86.3307C515.885 89.784 517.551 94.7324 517.596 101.317L519.596 101.304ZM514.212 84.9868C510.632 81.0149 505.233 79.1191 498.225 79.1191V81.1191C504.888 81.1191 509.652 82.9148 512.726 86.3257L514.212 84.9868ZM498.225 79.1191C491.134 79.1191 485.371 81.2159 481.047 85.4921L482.453 86.9142C486.332 83.0783 491.552 81.1191 498.225 81.1191V79.1191ZM481.043 85.496C476.812 89.7267 474.417 94.9848 473.85 101.22L475.842 101.401C476.369 95.605 478.576 90.7915 482.457 86.9102L481.043 85.496ZM474.846 102.311H518.596V100.311H474.846V102.311ZM598.234 85.6562V86.6562H599.234V85.6562H598.234ZM597.551 85.6562L597.319 86.6291L597.433 86.6562H597.551V85.6562ZM591.945 84.6992L591.818 85.6911L591.832 85.6929L591.846 85.6943L591.945 84.6992ZM574.104 87.0234L574.528 87.9288L574.537 87.9244L574.104 87.0234ZM563.439 93.791L562.808 93.0152L562.439 93.3154V93.791H563.439ZM563.439 148V149H564.439V148H563.439ZM550.588 148H549.588V149H550.588V148ZM550.588 71.6426V70.6426H549.588V71.6426H550.588ZM563.439 71.6426H564.439V70.6426H563.439V71.6426ZM563.439 82.9219H562.439V85.0083L564.066 83.7014L563.439 82.9219ZM576.906 74.2402L577.305 75.1572L577.31 75.1549L576.906 74.2402ZM593.723 71.8477L593.588 72.8385L593.61 72.8415L593.632 72.8436L593.723 71.8477ZM598.234 72.4629H599.234V71.6094L598.391 71.4753L598.234 72.4629ZM598.234 84.6562H597.551V86.6562H598.234V84.6562ZM597.782 84.6834C595.828 84.2181 593.915 83.8912 592.045 83.7042L591.846 85.6943C593.621 85.8718 595.445 86.1829 597.319 86.6291L597.782 84.6834ZM592.072 83.7073C590.241 83.4725 588.077 83.3574 585.588 83.3574V85.3574C588.021 85.3574 590.095 85.4702 591.818 85.6911L592.072 83.7073ZM585.588 83.3574C581.468 83.3574 577.492 84.2822 573.67 86.1224L574.537 87.9244C578.098 86.21 581.778 85.3574 585.588 85.3574V83.3574ZM573.679 86.1181C569.908 87.8872 566.285 90.188 562.808 93.0152L564.07 94.5668C567.43 91.8342 570.916 89.6233 574.528 87.9288L573.679 86.1181ZM562.439 93.791V148H564.439V93.791H562.439ZM563.439 147H550.588V149H563.439V147ZM551.588 148V71.6426H549.588V148H551.588ZM550.588 72.6426H563.439V70.6426H550.588V72.6426ZM562.439 71.6426V82.9219H564.439V71.6426H562.439ZM564.066 83.7014C569.134 79.6286 573.545 76.794 577.305 75.1571L576.507 73.3233C572.52 75.0589 567.953 78.0121 562.813 82.1424L564.066 83.7014ZM577.31 75.1549C581.11 73.4762 584.96 72.6426 588.869 72.6426V70.6426C584.666 70.6426 580.541 71.5408 576.502 73.3255L577.31 75.1549ZM588.869 72.6426C591.098 72.6426 592.657 72.7116 593.588 72.8385L593.858 70.8568C592.783 70.7103 591.107 70.6426 588.869 70.6426V72.6426ZM593.632 72.8436C594.6 72.9315 596.077 73.1322 598.077 73.4505L598.391 71.4753C596.382 71.1556 594.851 70.9461 593.813 70.8518L593.632 72.8436ZM597.234 72.4629V85.6562H599.234V72.4629H597.234Z" fill="#450874"/>
<defs>
<radialGradient id="paint0_radial_3_5" cx="0" cy="0" r="1" gradientUnits="userSpaceOnUse" gradientTransform="translate(100 100) rotate(90) scale(100)">
<stop stop-color="#61C1EF"/>
<stop offset="1" stop-color="#BB6BD9"/>
</radialGradient>
</defs>
</svg>
